<svg xmlns="http://www.w3.org/2000/svg" viewBox="0 0 1081.41 648.27"><defs><style>.cls-1{fill:none;}.cls-2{fill:#003cdc;}</style></defs><g id="Calque_2" data-name="Calque 2"><g id="Calque_1-2" data-name="Calque 1"><rect class="cls-1" width="1081.41" height="648.27"/><path class="cls-2" d="M345.4,175.37H174V346.81H345.41Zm-7.81,53.87v63.7a175.31,175.31,0,0,0-14.07-31.85A175.31,175.31,0,0,0,337.59,229.24Zm-46,109.86h-63.7A176.7,176.7,0,0,0,259.69,325,176.7,176.7,0,0,0,291.54,339.1ZM259.69,197.22a176.7,176.7,0,0,0-31.85-14.07h63.7A176.7,176.7,0,0,0,259.69,197.22Zm58.71,55.49a170.45,170.45,0,0,0-50.34-50.33A160.48,160.48,0,0,1,336.78,184,160.39,160.39,0,0,1,318.4,252.71Zm-4.84,8.38A161.62,161.62,0,0,1,259.69,315a161.62,161.62,0,0,1-53.87-53.87,161.62,161.62,0,0,1,53.87-53.87A161.72,161.72,0,0,1,313.56,261.09ZM201,252.71A160.4,160.4,0,0,1,182.59,184a160.4,160.4,0,0,1,68.72,18.39A170.54,170.54,0,0,0,201,252.71Zm0,16.76a170.54,170.54,0,0,0,50.33,50.33,160.39,160.39,0,0,1-68.72,18.38A160.4,160.4,0,0,1,201,269.47Zm117.42,0a160.39,160.39,0,0,1,18.38,68.71,160.39,160.39,0,0,1-68.71-18.38A170.54,170.54,0,0,0,318.4,269.47Zm-122.7-8.38a176.7,176.7,0,0,0-14.07,31.85v-63.7A176.7,176.7,0,0,0,195.7,261.09Z"/><path class="cls-2" d="M392.84,346.81H437V175.37H392.84Z"/><path class="cls-2" d="M861.87,346.81H906V211.49c0-34.83-13.14-39.63-27.35-39.63-10.64,0-19.68,4-29.3,13l-6.64,6.21V175.37H802.8V346.81H847v-124c0-7.89,5.71-8.5,7.46-8.5s7.45.61,7.45,8.5Z"/><path class="cls-2" d="M777.57,189.79c-7.88-12.23-20.28-17.93-39-17.93-19.26,0-32.12,5.8-40.47,18.26-8.56,12.79-12.55,32.55-12.55,62.18v17.58c0,30,3.78,49.91,11.9,62.51,7.88,12.23,20.27,17.93,39,17.93,19.28,0,32.14-5.8,40.48-18.26,8.57-12.79,12.56-32.55,12.56-62.18V252.3C789.47,222.26,785.69,202.39,777.57,189.79ZM743.63,303.35c0,6-3.34,7.29-6.14,7.29s-6.14-1.26-6.14-7.29V218.83c0-6,3.34-7.29,6.14-7.29s6.14,1.26,6.14,7.29Z"/><path class="cls-2" d="M525.47,171.86c-9.84,0-18.69,4.12-27.84,13L491,191.31V175.37H451V386.49h44.16V335.18l6.81,7.23a24.05,24.05,0,0,0,18.58,7.91c22.58,0,34-21.14,34-62.85V234.71C554.59,178.37,538,171.86,525.47,171.86ZM507.16,303.35c0,6-3.34,7.29-6.14,7.29s-6.14-1.26-6.14-7.29V218.83c0-6,3.34-7.29,6.14-7.29s6.14,1.26,6.14,7.29Z"/><path class="cls-2" d="M643.09,171.86c-9.85,0-18.7,4.12-27.85,13l-6.68,6.48V175.37H568.62V386.49h44.16V335.18l6.81,7.23a24.05,24.05,0,0,0,18.58,7.91c22.58,0,34-21.14,34-62.85V234.71C672.2,178.37,655.58,171.86,643.09,171.86ZM624.77,303.35c0,6-3.34,7.29-6.14,7.29s-6.14-1.26-6.14-7.29V218.83c0-6,3.34-7.29,6.14-7.29s6.14,1.26,6.14,7.29Z"/><path class="cls-2" d="M174,421.12h15.35c3.52,0,6.15.68,7.91,2.06a9.53,9.53,0,0,1,3.42,5.42,39.34,39.34,0,0,1,.79,8.77,38.37,38.37,0,0,1-.79,8.62,9.69,9.69,0,0,1-3.42,5.46c-1.76,1.4-4.39,2.11-7.91,2.11h-9.71V472.9H174Zm13.85,27.54a9.24,9.24,0,0,0,5.3-1.2,5.53,5.53,0,0,0,2.19-3.5,34.17,34.17,0,0,0,.49-6.59,34.63,34.63,0,0,0-.49-6.66,5.42,5.42,0,0,0-2.15-3.46q-1.65-1.17-5.27-1.17h-8.28v22.58Z"/><path class="cls-2" d="M220.21,471.47c-2.1-1.36-3.46-3.75-4.06-7.19s-.91-9.19-.91-17.27.31-13.84.91-17.28,2-5.83,4.06-7.18,5.62-2,10.54-2,8.43.68,10.54,2,3.46,3.75,4.06,7.18.9,9.2.9,17.28-.3,13.83-.9,17.27-2,5.83-4.06,7.19-5.62,2-10.54,2S222.32,472.82,220.21,471.47Zm17.24-4.07q1.88-1.12,2.48-5.34a124.65,124.65,0,0,0,.61-15.05,124.73,124.73,0,0,0-.61-15.06q-.6-4.21-2.48-5.34t-6.7-1.13c-3.21,0-5.45.38-6.7,1.13s-2.08,2.53-2.48,5.34A125.35,125.35,0,0,0,221,447a125.27,125.27,0,0,0,.6,15.05q.6,4.21,2.48,5.34c1.25.76,3.49,1.13,6.7,1.13S236.19,468.16,237.45,467.4Z"/><path class="cls-2" d="M261.83,472.52v-4.89q2.64.38,5.8.64c2.11.18,3.89.26,5.34.26a21.65,21.65,0,0,0,4.78-.41,6.29,6.29,0,0,0,2.9-1.47,4.93,4.93,0,0,0,1.39-2.86,29.19,29.19,0,0,0,.34-5,37.75,37.75,0,0,0-.3-5.8,3.39,3.39,0,0,0-1.39-2.37,11.1,11.1,0,0,0-3.88-1.17l-8.73-1.35a8.38,8.38,0,0,1-4.74-2.14,8,8,0,0,1-2.07-4.18,37.73,37.73,0,0,1-.49-6.85q0-7.83,3.31-11.1t10.61-3.28a45,45,0,0,1,11.45,1.21v4.66a57.82,57.82,0,0,0-10.17-.9,18.71,18.71,0,0,0-5.11.56,6,6,0,0,0-2.86,1.7,5.63,5.63,0,0,0-1.28,2.78,24.43,24.43,0,0,0-.3,4.22,29.16,29.16,0,0,0,.3,5,3.17,3.17,0,0,0,1.2,2.15,8.39,8.39,0,0,0,3,1l8.43,1.35a14.82,14.82,0,0,1,5,1.58,6.82,6.82,0,0,1,2.78,3.61q.92,2.19.91,8.66a26.68,26.68,0,0,1-1.25,9.11,8.57,8.57,0,0,1-4.13,4.82,17.5,17.5,0,0,1-7.95,1.5A78.85,78.85,0,0,1,261.83,472.52Z"/><path class="cls-2" d="M304.13,472.9V421.12h5.65V472.9Z"/><path class="cls-2" d="M335.44,472.9V426.23H323.93v-5.11h28.68v5.11H341.09V472.9Z"/><path class="cls-2" d="M366.83,472.9V421.12h5.65V472.9Z"/><path class="cls-2" d="M399.12,472.9l-12.95-51.78H392l10.62,44.33h.45l10.61-44.33h5.65L406.49,472.9Z"/><path class="cls-2" d="M433,472.9V421.12h24.46v5H438.63v18.14H455v5H438.63v18.74h18.82v5Z"/><path class="cls-2" d="M502.53,472.9V426.23H491v-5.11h28.67v5.11H508.18V472.9Z"/><path class="cls-2" d="M533.69,472.9V421.12h24.46v5H539.34v18.14h16.33v5H539.34v18.74h18.81v5Z"/><path class="cls-2" d="M592.21,473.24a42,42,0,0,1-4.48.26q-6.76,0-9.89-2c-2.09-1.36-3.49-3.83-4.22-7.41s-1.09-9.27-1.09-17.05.36-13.39,1.09-17,2.13-6.07,4.22-7.45,5.38-2.07,9.89-2.07a35,35,0,0,1,4.45.3,24.57,24.57,0,0,1,3.83.76v4.59a46.09,46.09,0,0,0-7.07-.68c-3.46,0-5.9.45-7.3,1.35s-2.32,2.77-2.75,5.58a111.67,111.67,0,0,0-.64,14.6,111.77,111.77,0,0,0,.64,14.6c.43,2.81,1.34,4.67,2.75,5.57s3.84,1.35,7.3,1.35a38.87,38.87,0,0,0,7.3-.67v4.74A38.61,38.61,0,0,1,592.21,473.24Z"/><path class="cls-2" d="M635,472.9V449.34H617V472.9h-5.57V421.12H617v23.1h18v-23.1h5.57V472.9Z"/><path class="cls-2" d="M682.19,472.9l-17.83-39.82h-.31V472.9h-5.41V421.12h5.94l17.54,39.13h.3V421.12h5.42V472.9Z"/><path class="cls-2" d="M709.59,471.47c-2.11-1.36-3.46-3.75-4.06-7.19s-.91-9.19-.91-17.27.3-13.84.91-17.28,2-5.83,4.06-7.18,5.62-2,10.54-2,8.43.68,10.54,2,3.46,3.75,4.06,7.18.9,9.2.9,17.28-.3,13.83-.9,17.27-2,5.83-4.06,7.19-5.62,2-10.54,2S711.7,472.82,709.59,471.47Zm17.24-4.07q1.88-1.12,2.48-5.34a125.27,125.27,0,0,0,.6-15.05,125.35,125.35,0,0,0-.6-15.06q-.6-4.21-2.48-5.34t-6.7-1.13c-3.21,0-5.45.38-6.7,1.13s-2.08,2.53-2.48,5.34a122.62,122.62,0,0,0-.61,15.06,122.54,122.54,0,0,0,.61,15.05c.4,2.81,1.22,4.59,2.48,5.34s3.49,1.13,6.7,1.13S725.57,468.16,726.83,467.4Z"/><path class="cls-2" d="M752.42,472.9V421.12h5.64v46.66h16.71v5.12Z"/><path class="cls-2" d="M792.16,471.47c-2.11-1.36-3.46-3.75-4.07-7.19s-.9-9.19-.9-17.27.3-13.84.9-17.28,2-5.83,4.07-7.18,5.62-2,10.54-2,8.43.68,10.53,2,3.46,3.75,4.07,7.18.9,9.2.9,17.28-.3,13.83-.9,17.27-2,5.83-4.07,7.19-5.62,2-10.53,2S794.26,472.82,792.16,471.47Zm17.23-4.07q1.89-1.12,2.49-5.34a125.27,125.27,0,0,0,.6-15.05,125.35,125.35,0,0,0-.6-15.06q-.6-4.21-2.49-5.34t-6.69-1.13q-4.83,0-6.7,1.13T793.51,432a125.35,125.35,0,0,0-.6,15.06,125.27,125.27,0,0,0,.6,15.05q.6,4.21,2.49,5.34c1.25.76,3.48,1.13,6.7,1.13S808.14,468.16,809.39,467.4Z"/><path class="cls-2" d="M848.68,450.17v-4.82h13.17v26.72a60.59,60.59,0,0,1-6.05,1,52.59,52.59,0,0,1-6.06.41q-6.86,0-10.16-2T835,464q-1.28-5.5-1.28-17T835,430.15q1.29-5.5,4.6-7.57t10.23-2.07a55.47,55.47,0,0,1,11.89,1.43v4.67a48.35,48.35,0,0,0-4.93-.79,40.9,40.9,0,0,0-4.62-.34q-6.1,0-8.51,1.13T840.33,432q-.9,4.29-.91,15a102.79,102.79,0,0,0,.68,14.11c.45,2.89,1.38,4.85,2.79,5.91s3.71,1.58,6.92,1.58a30.14,30.14,0,0,0,6.55-.6V450.17Z"/><path class="cls-2" d="M887.07,472.9V453l-13.33-31.83h6l10.09,25.13h.45l10.08-25.13H906L892.64,453V472.9Z"/></g></g></svg>