<?xml version="1.0" encoding="utf-8"?>
<!-- Generator: Adobe Illustrator 16.0.0, SVG Export Plug-In . SVG Version: 6.00 Build 0)  -->
<!DOCTYPE svg PUBLIC "-//W3C//DTD SVG 1.1//EN" "http://www.w3.org/Graphics/SVG/1.1/DTD/svg11.dtd">
<svg version="1.1" id="Calque_1" xmlns="http://www.w3.org/2000/svg" xmlns:xlink="http://www.w3.org/1999/xlink" x="0px" y="0px"
	 width="500px" height="360px" viewBox="0 0 500 360" enable-background="new 0 0 500 360" xml:space="preserve">
<path fill="#6ABFAD" d="M280.949,340.28l-97.952-148.466v132.443 M203.275,105.725l106.88,160.317V121.737"/>
<rect x="4.773" y="64.562" fill="#222332" width="36.083" height="36.084"/>
<rect x="155.842" y="64.562" fill="#222332" width="36.083" height="36.084"/>
<rect x="105.486" y="64.562" fill="#222332" width="36.083" height="36.084"/>
<rect x="55.129" y="64.562" fill="#222332" width="36.083" height="36.084"/>
<rect x="155.842" y="17.054" fill="#222332" width="36.083" height="36.083"/>
<rect x="455.313" y="64.562" fill="#222332" width="36.078" height="36.084"/>
<rect x="354.955" y="64.562" fill="#222332" width="36.084" height="36.084"/>
<rect x="304.776" y="64.562" fill="#222332" width="36.084" height="36.084"/>
<rect x="405.135" y="64.562" fill="#222332" width="36.083" height="36.084"/>
<path fill="#222332" d="M5,105v25h55v212h76V130h55v-25H5z M121,327h-10V221h10V327z M121,171h-10v-36h10V171z"/>
<path fill="#222332" d="M303,105v25h60v212h76V130h55v-25H303z M432,332h-31V130h31V332z"/>
<path fill="#FFFFFF" d="M134.303,340.28"/>
</svg>
