<svg xmlns="http://www.w3.org/2000/svg" width="500" height="500" viewBox="0 0 500 500"><path fill="#222332" d="M452 155c4.5-10 7-21.5 7-33.5 0-45-36.5-81.5-81.5-81.5S296 76.5 296 121.5h-1.5C289 95.5 265.5 76 238 76c-16 0-30 6.5-40.5 16.5C180 61.5 147 40 109 40 53.5 40 9 85 9 140c0 41.5 25 77 61 92 7.5 33.5 37.5 59 73.5 59h276c40 0 72-32.5 72-72-.5-28-16.5-52-39.5-64z"/><g fill="none" stroke="#6ABFAD" stroke-width="3" stroke-miterlimit="10"><path d="M249 501v-4"/><path stroke-dasharray="7.8636,7.8636" d="M249 489.137V241.432"/><path d="M249 237.5v-4"/></g><circle fill="#6ABFAD" cx="249" cy="218" r="23"/><circle fill="none" stroke="#6ABFAD" stroke-width="4" stroke-miterlimit="10" cx="249" cy="218" r="42.5"/></svg>