<svg xmlns="http://www.w3.org/2000/svg" width="500" height="500" viewBox="0 0 500 500"><path fill="#6ABFAD" d="M188.5 272.5l2.5 2.5 33.5-33c-3-6-4.5-13-4.5-19.5 0-12 5-23.5 13.5-32.5l45-45c-1-31-13.5-62-37-86-29.5-29-70-41.5-108.5-36l72 72-23.5 86.5-86 23.5-73-73c-5 38.5 7 79 36.5 108.5 35 35 85.5 46 129.5 32zm241 156.5c-10 10-26.5 10-36.5 0s-10-26 0-36 26.5-10 36.5 0 10 26 0 36zm25-58.5L361 277l-20.5 20c-13.5 13.5-35 17-52 9l-33 33.5L370 454c2 2.5 4 5 6 7 23.5 23.5 61.5 23.5 84.5 0 23.5-23.5 23.5-61.5 0-85-1.5-2-3.5-4-6-5.5z"/><path fill="#222332" d="M298 275.5c6 6 16 6 21.5 0l20-20L470 125c6-6 6-15.5 0-21.5L427 60c-5.5-6-15.5-6-21.5 0L275 191l-20 20c-3 3-4.5 6.5-4.5 11 0 4 1.5 7.5 4.5 10.5l10.5 10.5-53 53.5L127 382l-44 5-30.5 91.5L144 448l5-44 85.5-85.5L287 265l11 10.5z"/></svg>