<svg xmlns="http://www.w3.org/2000/svg" width="500" height="500" viewBox="0 0 500 500"><path fill="#222332" d="M440 151c-61-100.5-153-30.5-153-30.5-20 17-45 22.5-73.5 0 0 0-92-70-153 30.5-61.5 100.5-37 209.5-37 209.5C28 387 42 405 69 403c26.5-2 85-72 85-72 5-6 15-10.5 22.5-10.5h148c7.5 0 17.5 4.5 22.5 10.5 0 0 58 70 85 72s41-15.5 45.5-42.5c-1 0 23.5-109-37.5-209.5zm-257 80.5h-31.5V263H120v-31.5H88.5v-31H120V169h31v31.5h31.5v31h.5z"/><path fill="#6ABFAD" d="M345.5 143.5c13.5 0 24.5 11 24.5 24.5s-11 24.5-24.5 24.5-24.5-11-24.5-24.5 11-24.5 24.5-24.5zm-42.5 92c-13.5 0-24.5-11-24.5-24.5s11-24.5 24.5-24.5 24.5 11 24.5 24.5-11 24.5-24.5 24.5zm42.5 42.5c-13.5 0-24.5-11-24.5-24.5s11-24.5 24.5-24.5 24.5 11 24.5 24.5c.5 13.5-10.5 24.5-24.5 24.5zm43-42.5c-13.5 0-24.5-11-24.5-24.5s11-24.5 24.5-24.5 24.5 11 24.5 24.5-11 24.5-24.5 24.5zm-205.5-4h-31.5V263H120v-31.5H88.5v-31H120V169h31v31.5h31.5v31z"/></svg>