<svg xmlns="http://www.w3.org/2000/svg" xmlns:xlink="http://www.w3.org/1999/xlink" width="100" height="100" viewBox="0 0 100 100"><defs><path id="a" d="M13.079.955h73.842v98.18H13.079z"/></defs><clipPath id="b"><use xlink:href="#a" overflow="visible"/></clipPath><path clip-path="url(#b)" fill="none" stroke="#6ABFAD" stroke-width="4" stroke-miterlimit="10" d="M34.616 96.059h30.768M37.693 52.983H31.54M37.693 37.6H31.54m6.153-15.384H31.54m36.921 30.767h-6.154M68.461 37.6h-6.154m6.154-15.384h-6.154M50 12.985v49.229M46.923 4.001C36.462 5.477 28.462 14.464 28.462 25.292v24.614c0 10.862 8 19.816 18.461 21.292m6.154-67.197c10.462 1.475 18.46 10.432 18.46 21.291v24.614c0 10.862-7.998 19.816-18.46 21.292m30.768-21.036c0 18.593-15.186 33.719-33.845 33.719-18.661 0-33.845-15.24-33.845-33.974"/></svg>