<svg xmlns="http://www.w3.org/2000/svg" width="500" height="360" viewBox="0 0 500 360"><path fill="#6ABFAD" d="M280.949 340.28l-97.952-148.466v132.443m20.278-218.532l106.88 160.317V121.737"/><path fill="#222332" d="M4.773 64.562h36.083v36.084H4.773zm151.069 0h36.083v36.084h-36.083zm-50.356 0h36.083v36.084h-36.083zm-50.357 0h36.083v36.084H55.129zm100.713-47.508h36.083v36.083h-36.083zm299.471 47.508h36.078v36.084h-36.078zm-100.358 0h36.084v36.084h-36.084zm-50.179 0h36.084v36.084h-36.084zm100.359 0h36.083v36.084h-36.083zM5 105v25h55v212h76V130h55v-25H5zm116 222h-10V221h10v106zm0-156h-10v-36h10v36zm182-66v25h60v212h76V130h55v-25H303zm129 227h-31V130h31v202z"/></svg>