<?xml version="1.0" standalone="no"?>
<!DOCTYPE svg PUBLIC "-//W3C//DTD SVG 20010904//EN"
 "http://www.w3.org/TR/2001/REC-SVG-20010904/DTD/svg10.dtd">
<svg version="1.0" xmlns="http://www.w3.org/2000/svg"
 width="600.000000pt" height="600.000000pt" viewBox="0 0 600.000000 600.000000"
 preserveAspectRatio="xMidYMid meet">
<metadata>
Created by potrace 1.11, written by Peter Selinger 2001-2013
</metadata>
<g transform="translate(0.000000,600.000000) scale(0.100000,-0.100000)"
fill="#000000" stroke="none">
<path d="M940 3600 l0 -280 275 0 275 0 0 280 0 280 -275 0 -275 0 0 -280z"/>
<path d="M1530 3600 l0 -280 280 0 280 0 0 280 0 280 -280 0 -280 0 0 -280z"/>
<path d="M2130 3600 l0 -280 280 0 280 0 0 280 0 280 -280 0 -280 0 0 -280z"/>
<path d="M3310 3600 l0 -280 280 0 280 0 0 280 0 280 -280 0 -280 0 0 -280z"/>
<path d="M3910 3600 l0 -280 280 0 280 0 0 280 0 280 -280 0 -280 0 0 -280z"/>
<path d="M4510 3600 l0 -280 275 0 275 0 0 280 0 280 -275 0 -275 0 0 -280z"/>
<path d="M1532 3008 l3 -283 278 -3 277 -2 0 285 0 285 -280 0 -280 0 2 -282z"/>
<path d="M2130 3010 l0 -280 275 0 275 0 0 280 0 280 -275 0 -275 0 0 -280z"/>
<path d="M3320 3010 l0 -280 275 0 275 0 0 280 0 280 -275 0 -275 0 0 -280z"/>
<path d="M3910 3005 l0 -285 278 2 277 3 0 280 0 280 -277 3 -278 2 0 -285z"/>
<path d="M2720 3006 l0 -276 276 0 276 0 -267 273 c-148 149 -272 274 -276
275 -5 2 -9 -120 -9 -272z"/>
<path d="M1530 2410 l0 -280 280 0 280 0 0 280 0 280 -280 0 -280 0 0 -280z"/>
<path d="M2130 2410 l0 -280 275 0 275 0 0 280 0 280 -275 0 -275 0 0 -280z"/>
<path d="M2730 2682 c0 -4 124 -131 275 -282 l275 -275 0 283 0 282 -275 0
c-151 0 -275 -3 -275 -8z"/>
<path d="M3320 2410 l0 -280 275 0 275 0 0 280 0 280 -275 0 -275 0 0 -280z"/>
<path d="M3910 2410 l0 -280 280 0 280 0 0 280 0 280 -280 0 -280 0 0 -280z"/>
</g>
</svg>
