<svg id="Calque_1" data-name="Calque 1" xmlns="http://www.w3.org/2000/svg" width="200" height="200" viewBox="0 0 200 200">
  <defs>
    <style>
      .cls-1 {
        fill: #fc0d1a;
      }

      .cls-2 {
        fill: #fff;
      }
    </style>
  </defs>
  <title>200X200_RVB</title>
  <g>
    <polygon class="cls-1" points="171.869 156.346 130.852 43.654 28.131 136.145 171.869 156.346"/>
    <g>
      <rect class="cls-2" x="122.18877" y="100.00003" width="8.18931" height="28.17276"/>
      <path class="cls-2" d="M103.88178,116.99878l2.44349-8.93384,2.47855,8.93384ZM101.91383,100,91.78635,128.17279h9.128l1.488-4.63754h7.88189l1.48844,4.63754h9.1284L110.77418,100Z"/>
      <polygon class="cls-2" points="58.517 128.173 66.469 128.173 66.469 112.312 71.916 123.923 77.099 123.923 82.546 112.312 82.546 128.173 90.498 128.173 90.498 100 80.959 100 74.625 113.745 68.274 100 58.516 100 58.517 128.173"/>
      <polygon class="cls-2" points="133.484 100 133.484 128.173 141.673 128.173 141.673 117.354 151.993 117.354 153.095 110.663 141.673 110.663 141.673 106.691 153.796 106.691 154.882 100 133.484 100"/>
    </g>
  </g>
</svg>
