<?xml version="1.0" encoding="utf-8"?>
<!-- Generator: Adobe Illustrator 16.0.0, SVG Export Plug-In . SVG Version: 6.00 Build 0)  -->
<!DOCTYPE svg PUBLIC "-//W3C//DTD SVG 1.1//EN" "http://www.w3.org/Graphics/SVG/1.1/DTD/svg11.dtd">
<svg version="1.1" id="Calque_1" xmlns="http://www.w3.org/2000/svg" xmlns:xlink="http://www.w3.org/1999/xlink" x="0px" y="0px"
	 width="500px" height="500px" viewBox="0 0 500 500" enable-background="new 0 0 500 500" xml:space="preserve">
<path fill="#222332" d="M424,20.5c-15-15-40-15-55,0L340.5,49c-36-26.5-84-25.5-109-1l82.5,82l82.5,82.5c0,0,20.5-68-1.5-108
	l29.5-29C439,60,439,35.5,424,20.5z M116,270c21.5,43-21.5,43,0,64.5s21.5-21.5,64.5,0l150-150L266,120L116,270z"/>
<path fill="#FFF" d="M118,370c0,0-58,49-53,89.5s59,32,65.5,28.5c7.5-4.5,50-31.5,2.5-79.5C107,381.5,118,370,118,370z"/>
</svg>
