<?xml version="1.0" encoding="utf-8"?>
<!-- Generator: Adobe Illustrator 16.0.0, SVG Export Plug-In . SVG Version: 6.00 Build 0)  -->
<!DOCTYPE svg PUBLIC "-//W3C//DTD SVG 1.1//EN" "http://www.w3.org/Graphics/SVG/1.1/DTD/svg11.dtd">
<svg version="1.1" id="Calque_1" xmlns="http://www.w3.org/2000/svg" xmlns:xlink="http://www.w3.org/1999/xlink" x="0px" y="0px"
	 width="500px" height="500px" viewBox="0 0 500 500" enable-background="new 0 0 500 500" xml:space="preserve">
<path fill="#222332" d="M452,155c4.5-10,7-21.5,7-33.5c0-45-36.5-81.5-81.5-81.5S296,76.5,296,121.5h-1.5C289,95.5,265.5,76,238,76
	c-16,0-30,6.5-40.5,16.5C180,61.5,147,40,109,40C53.5,40,9,85,9,140c0,41.5,25,77,61,92c7.5,33.5,37.5,59,73.5,59h276
	c40,0,72-32.5,72-72C491,191,475,167,452,155z"/>
<g>
	<g>
		<line fill="none" stroke="#FFF" stroke-width="3" stroke-miterlimit="10" x1="249" y1="501" x2="249" y2="497"/>

			<line fill="none" stroke="#FFF" stroke-width="3" stroke-miterlimit="10" stroke-dasharray="7.8636,7.8636" x1="249" y1="489.137" x2="249" y2="241.432"/>
		<line fill="none" stroke="#FFF" stroke-width="3" stroke-miterlimit="10" x1="249" y1="237.5" x2="249" y2="233.5"/>
	</g>
</g>
<circle fill="#FFF" cx="249" cy="218" r="23"/>
<circle fill="none" stroke="#FFF" stroke-width="4" stroke-miterlimit="10" cx="249" cy="218" r="42.5"/>
</svg>
