<?xml version="1.0" encoding="utf-8"?>
<!-- Generator: Adobe Illustrator 16.0.0, SVG Export Plug-In . SVG Version: 6.00 Build 0)  -->
<!DOCTYPE svg PUBLIC "-//W3C//DTD SVG 1.1//EN" "http://www.w3.org/Graphics/SVG/1.1/DTD/svg11.dtd">
<svg version="1.1" id="Calque_1" xmlns="http://www.w3.org/2000/svg" xmlns:xlink="http://www.w3.org/1999/xlink" x="0px" y="0px"
	 width="500px" height="500px" viewBox="0 0 500 500" enable-background="new 0 0 500 500" xml:space="preserve">
<polygon fill="#222332" points="250,304.5 72.5,304.5 161.5,207.5 250,110 338.5,207.5 427.5,304.5 "/>
<polygon fill="#222332" points="123.5,304.5 123.5,479 169,479 169,376 230,376 230,479 376.5,479 376.5,304.5 "/>
<path fill="#FFF" d="M385.5,159H410c0-32.5-11-64.5-36-89.5S316.5,30,281,30v24c29.5,0,57,10,77.5,30.5
	C378.5,105,386.5,130,385.5,159z M345.5,159h24c0-23.5-10-45.5-26.5-62c-16.5-17-39-27-62-27v24c17.5,0,35,4.5,48,17
	C341,123.5,345.5,141,345.5,159z"/>
</svg>
