<?xml version="1.0" encoding="UTF-8"?>
<svg viewBox="0 0 416 176" version="1.1" xmlns="http://www.w3.org/2000/svg"
  xmlns:xlink="http://www.w3.org/1999/xlink">
  <!-- Generator: Sketch 51.3 (57544) - http://www.bohemiancoding.com/sketch -->
  <title>TNT</title>
  <desc>Created with Sketch.</desc>
  <defs>
    <g id="T">
      <rect fill="#222333" x="60" y="120" width="56" height="56" id="tRectangleBottomCenter" class="bottomCenter"/>
      <rect fill="#222333" x="60" y="60" width="56" height="56" id="tRectangleCenterCenter"/>
      <rect fill="#222333" x="60" y="0" width="56" height="56" id="tRectangleTopCenter" class="topCenter"/>
      <rect fill="#222333" x="0" y="0" width="56" height="56" id="tRectangleTopLeft" class="topLeft"/>
      <rect fill="#222333" x="120" y="0" width="56" height="56" id="tRectangleTopRight" class="topRight"/>
    </g>
    <g id="N" fill="#6ABFAD">
      <polygon id="nTriangleCenterCenter" points="60 0 116 56 60 56"/>
      <polygon id="nTriangleTopLeft" fill="#6ABFAD" points="0 -60 56 -4 0 -4" class="topLeft"/>
      <polygon id="nTriangleTopRight" fill="#6ABFAD" points="120 -60 176 -4 120 -4" class="topRight"/>
      <polygon id="nTriangleBottomCenter" points="60 60 116 60 116 116" class="bottomCenter"/>
      <rect id="nRectangleMiddleLeft" x="0" y="0" width="56" height="56" class="middleLeft"/>
      <rect id="nRectangleMiddleRight" x="120" y="0" width="56" height="56" class="middleRight"/>
      <rect id="nRectangleBottomLeft" x="0" y="60" width="56" height="56" class="bottomLeft"/>
      <rect id="nRectangleBottomRight" x="120" y="60" width="56" height="56" class="bottomRight"/>
    </g>
  </defs>
  <g id="Icon" stroke="none" stroke-width="1" fill="none" fill-rule="evenodd">
    <g id="TNT">
      <use xlink:href="#T" id="rightT" x="240" y="0"/>
      <use xlink:href="#T" id="leftT" x="0" y="0"/>
      <use xlink:href="#N" id="middleN" x="120" y="60"/>
    </g>
  </g>
</svg>
