<svg height="512pt" viewBox="0 0 512 512" width="512pt" xmlns="http://www.w3.org/2000/svg">
  <path fill="#6ABFAD" d="m501.332031 64c5.890625 0 10.667969-4.777344 10.667969-10.667969v-42.664062c0-5.890625-4.777344-10.667969-10.667969-10.667969h-490.664062c-5.890625 0-10.667969 4.777344-10.667969 10.667969v42.664062c0 5.890625 4.777344 10.667969 10.667969 10.667969h10.664062v320h-21.332031v21.332031h245.332031v44.628907c-12.382812 4.417968-21.332031 16.152343-21.332031 30.039062 0 17.644531 14.355469 32 32 32s32-14.355469 32-32c0-13.886719-8.949219-25.621094-21.332031-30.039062v-44.628907h245.332031v-21.332031h-21.332031v-320zm-245.332031 426.667969c-5.878906 0-10.667969-4.789063-10.667969-10.667969s4.789063-10.667969 10.667969-10.667969 10.667969 4.789063 10.667969 10.667969-4.789063 10.667969-10.667969 10.667969zm-234.667969-469.335938h469.335938v21.335938h-469.335938zm96 298.667969v-138.667969h21.335938v138.667969h42.664062v-181.332031h21.335938v181.332031h42.664062v-213.332031h21.335938v213.332031h42.664062v-181.332031h21.335938v181.332031h42.664062v-138.667969h21.335938v138.667969h32v21.332031h-341.335938v-21.332031zm-32-192v-21.332031h21.335938v21.332031zm298.667969 0v-21.332031h42.667969v21.332031zm0 0"/>
</svg>
