<?xml version="1.0" encoding="utf-8"?>
<!-- Generator: Adobe Illustrator 16.0.0, SVG Export Plug-In . SVG Version: 6.00 Build 0)  -->
<!DOCTYPE svg PUBLIC "-//W3C//DTD SVG 1.1//EN" "http://www.w3.org/Graphics/SVG/1.1/DTD/svg11.dtd">
<svg version="1.1" id="Calque_1" xmlns="http://www.w3.org/2000/svg" xmlns:xlink="http://www.w3.org/1999/xlink" x="0px" y="0px"
	 width="500px" height="500px" viewBox="0 0 500 500" enable-background="new 0 0 500 500" xml:space="preserve">
<path fill="#FFF" d="M188.5,272.5l2.5,2.5l33.5-33c-3-6-4.5-13-4.5-19.5c0-12,5-23.5,13.5-32.5l45-45c-1-31-13.5-62-37-86
	C212,30,171.5,17.5,133,23l72,72l-23.5,86.5l-86,23.5l-73-73c-5,38.5,7,79,36.5,108.5C94,275.5,144.5,286.5,188.5,272.5z M429.5,429
	c-10,10-26.5,10-36.5,0s-10-26,0-36s26.5-10,36.5,0S439.5,419,429.5,429z M454.5,370.5L361,277l-20.5,20c-13.5,13.5-35,17-52,9
	l-33,33.5L370,454c2,2.5,4,5,6,7c23.5,23.5,61.5,23.5,84.5,0c23.5-23.5,23.5-61.5,0-85C459,374,457,372,454.5,370.5z"/>
<path fill="#222332" d="M298,275.5c6,6,16,6,21.5,0l20-20L470,125c6-6,6-15.5,0-21.5L427,60c-5.5-6-15.5-6-21.5,0L275,191l-20,20
	c-3,3-4.5,6.5-4.5,11c0,4,1.5,7.5,4.5,10.5l10.5,10.5l-53,53.5L127,382l-44,5l-30.5,91.5L144,448l5-44l85.5-85.5L287,265L298,275.5z
	"/>
</svg>
