<?xml version="1.0" encoding="utf-8"?>
<!-- Generator: Adobe Illustrator 16.0.0, SVG Export Plug-In . SVG Version: 6.00 Build 0)  -->
<!DOCTYPE svg PUBLIC "-//W3C//DTD SVG 1.1//EN" "http://www.w3.org/Graphics/SVG/1.1/DTD/svg11.dtd">
<svg version="1.1" id="Calque_1" xmlns="http://www.w3.org/2000/svg" xmlns:xlink="http://www.w3.org/1999/xlink" x="0px" y="0px"
	 width="500px" height="500px" viewBox="0 0 500 500" enable-background="new 0 0 500 500" xml:space="preserve">
<path fill="#222332" d="M440,151c-61-100.5-153-30.5-153-30.5c-20,17-45,22.5-73.5,0c0,0-92-70-153,30.5
	c-61.5,100.5-37,209.5-37,209.5C28,387,42,405,69,403c26.5-2,85-72,85-72c5-6,15-10.5,22.5-10.5h148c7.5,0,17.5,4.5,22.5,10.5
	c0,0,58,70,85,72s41-15.5,45.5-42.5C476.5,360.5,501,251.5,440,151z M183,231.5h-31.5V263H120v-31.5H88.5v-31H120V169h31v31.5h31.5
	v31H183z"/>
<path fill="#FFF" d="M345.5,143.5c13.5,0,24.5,11,24.5,24.5s-11,24.5-24.5,24.5S321,181.5,321,168S332,143.5,345.5,143.5z"/>
<path fill="#FFF" d="M303,235.5c-13.5,0-24.5-11-24.5-24.5s11-24.5,24.5-24.5s24.5,11,24.5,24.5S316.5,235.5,303,235.5z"/>
<path fill="#FFF" d="M345.5,278c-13.5,0-24.5-11-24.5-24.5s11-24.5,24.5-24.5s24.5,11,24.5,24.5C370.5,267,359.5,278,345.5,278z"
	/>
<path fill="#FFF" d="M388.5,235.5c-13.5,0-24.5-11-24.5-24.5s11-24.5,24.5-24.5s24.5,11,24.5,24.5S402,235.5,388.5,235.5z"/>
<polygon fill="#FFF" points="183,231.5 151.5,231.5 151.5,263 120,263 120,231.5 88.5,231.5 88.5,200.5 120,200.5 120,169
	151,169 151,200.5 182.5,200.5 182.5,231.5 "/>
</svg>
