<?xml version="1.0" encoding="UTF-8"?>
<svg width="416px" height="176px" viewBox="0 0 416 176" version="1.1" xmlns="http://www.w3.org/2000/svg" xmlns:xlink="http://www.w3.org/1999/xlink">
    <!-- Generator: Sketch 51.3 (57544) - http://www.bohemiancoding.com/sketch -->
    <title>TNT</title>
    <desc>Created with Sketch.</desc>
    <defs></defs>
    <g id="Icon" stroke="none" stroke-width="1" fill="none" fill-rule="evenodd">
        <g id="big-icon" transform="translate(-238.000000, -58.000000)">
            <g id="TNT" transform="translate(238.000000, 58.000000)">
                <g id="T" transform="translate(240.000000, 0.000000)">
                    <rect id="Rectangle" fill="#222333" x="60" y="120" width="56" height="56"></rect>
                    <rect id="Rectangle" fill="#222333" x="60" y="60" width="56" height="56"></rect>
                    <rect id="Rectangle" fill="#222333" x="60" y="0" width="56" height="56"></rect>
                    <rect id="Rectangle" fill="#222333" x="0" y="0" width="56" height="56"></rect>
                    <rect id="Rectangle" fill="#222333" x="120" y="0" width="56" height="56"></rect>
                    <polygon id="1" fill="#FFFFFF" points="89.485 18.24 81.675 25.115 77 19.725 89.705 9 97.405 9 97.405 47.94 89.485 47.94"></polygon>
                    <path d="M147.905,33.685 C147.464998,33.7950006 147.025002,33.8866663 146.585,33.96 C146.144998,34.0333337 145.686669,34.07 145.21,34.07 C143.376657,34.07 141.708341,33.7400033 140.205,33.08 C138.701659,32.4199967 137.418339,31.5216724 136.355,30.385 C135.291661,29.2483277 134.46667,27.9008411 133.88,26.3425 C133.29333,24.7841589 133,23.1250088 133,21.365 C133,19.3483232 133.37583,17.5241748 134.1275,15.8925 C134.87917,14.2608252 135.905827,12.8583392 137.2075,11.685 C138.509173,10.5116608 140.039991,9.60416988 141.8,8.9625 C143.560009,8.32083013 145.466656,8 147.52,8 C149.536677,8 151.434158,8.32083013 153.2125,8.9625 C154.990842,9.60416988 156.530827,10.5116608 157.8325,11.685 C159.134173,12.8583392 160.16083,14.2608252 160.9125,15.8925 C161.66417,17.5241748 162.04,19.3483232 162.04,21.365 C162.04,22.7583403 161.911668,24.0324942 161.655,25.1875 C161.398332,26.3425058 161.059169,27.4333282 160.6375,28.46 C160.215831,29.4866718 159.720836,30.4674953 159.1525,31.4025 C158.584164,32.3375047 157.988336,33.299995 157.365,34.29 L148.84,47.6 L138.775,47.6 L147.905,33.685 Z M141.25,21.695 C141.25,23.4550088 141.827494,24.9124942 142.9825,26.0675 C144.137506,27.2225058 145.649991,27.8 147.52,27.8 C149.390009,27.8 150.902494,27.2225058 152.0575,26.0675 C153.212506,24.9124942 153.79,23.4550088 153.79,21.695 C153.79,19.9349912 153.212506,18.4775058 152.0575,17.3225 C150.902494,16.1674942 149.390009,15.59 147.52,15.59 C145.649991,15.59 144.137506,16.1674942 142.9825,17.3225 C141.827494,18.4775058 141.25,19.9349912 141.25,21.695 Z" id="9" fill="#FFFFFF"></path>
                    <polygon id="Rectangle" fill="#6ABFAD" points="0 0 56 56 0 56"></polygon>
                    <path d="M18.62,36.885 L14,36.885 L14,31.935 L19.28,31.935 L20.215,25.005 L15.595,25.005 L15.595,20.055 L20.875,20.055 L22.415,9 L27.75,9 L26.21,20.055 L31.655,20.055 L33.195,9 L38.53,9 L36.99,20.055 L41.61,20.055 L41.61,25.005 L36.33,25.005 L35.395,31.935 L40.015,31.935 L40.015,36.885 L34.735,36.885 L33.195,47.94 L27.86,47.94 L29.4,36.885 L23.955,36.885 L22.415,47.94 L17.08,47.94 L18.62,36.885 Z M30.995,25.005 L25.55,25.005 L24.615,31.935 L30.06,31.935 L30.995,25.005 Z" id="#" fill="#FFFFFF"></path>
                </g>
                <g id="N" transform="translate(120.000000, 60.000000)" fill="#6ABFAD">
                    <rect id="Rectangle" x="0" y="0" width="56" height="56"></rect>
                    <rect id="Rectangle" x="0" y="60" width="56" height="56"></rect>
                    <polygon id="Rectangle" points="60 60 116 60 116 116"></polygon>
                    <polygon id="Rectangle" points="60 0 116 56 60 56"></polygon>
                    <rect id="Rectangle" x="120" y="0" width="56" height="56"></rect>
                    <rect id="Rectangle" x="120" y="60" width="56" height="56"></rect>
                </g>
                <g id="T" fill="#222333">
                    <rect id="Rectangle" x="60" y="120" width="56" height="56"></rect>
                    <rect id="Rectangle" x="60" y="60" width="56" height="56"></rect>
                    <rect id="Rectangle" x="60" y="0" width="56" height="56"></rect>
                    <rect id="Rectangle" x="0" y="0" width="56" height="56"></rect>
                    <rect id="Rectangle" x="120" y="0" width="56" height="56"></rect>
                </g>
                <polygon id="Rectangle" fill="#6ABFAD" points="120 0 176 56 120 56"></polygon>
            </g>
        </g>
    </g>
</svg>