<svg version="1" xmlns="http://www.w3.org/2000/svg" width="554.667" height="554.667" viewBox="0 0 416.000000 416.000000"><path d="M0 148v28h56v-56H0v28zM60 148v28h56v-56H60v28zM120 148v28h56v-56h-56v28zM240 148v28h56v-56h-56v28zM300 148v28h56v-56h-56v28zM360 148v28h56v-56h-56v28zM60 208v28h56v-56H60v28zM120 208v28h56v-56h-56v28zM180 208v28h27.5c15.1 0 27.5-.2 27.5-.5s-12.4-12.9-27.5-28L180 180v28zM240 208v28h56v-56h-56v28zM300 208v28h56v-56h-56v28zM60 268v28h56v-56H60v28zM120 268v28h56v-56h-56v28zM181 240.5c0 .3 12.4 12.9 27.5 28L236 296v-56h-27.5c-15.1 0-27.5.2-27.5.5zM240 268v28h56v-56h-56v28zM300 268v28h56v-56h-56v28z"/></svg>