<?xml version="1.0" encoding="utf-8"?>
<!-- Generator: Adobe Illustrator 16.0.0, SVG Export Plug-In . SVG Version: 6.00 Build 0)  -->
<!DOCTYPE svg PUBLIC "-//W3C//DTD SVG 1.1//EN" "http://www.w3.org/Graphics/SVG/1.1/DTD/svg11.dtd">
<svg version="1.1" id="Calque_1" xmlns="http://www.w3.org/2000/svg" xmlns:xlink="http://www.w3.org/1999/xlink" x="0px" y="0px"
	 width="100px" height="100px" viewBox="0 0 100 100" enable-background="new 0 0 100 100" xml:space="preserve">
<g>
	<defs>
		<rect id="SVGID_1_" x="13.079" y="0.955" width="73.842" height="98.18"/>
	</defs>
	<clipPath id="SVGID_2_">
		<use xlink:href="#SVGID_1_"  overflow="visible"/>
	</clipPath>
	<path clip-path="url(#SVGID_2_)" fill="none" stroke="#FFFFFF" stroke-width="4" stroke-miterlimit="10" d="M34.616,96.059h30.768
		 M37.693,52.983H31.54 M37.693,37.6H31.54 M37.693,22.216H31.54 M68.461,52.983h-6.154 M68.461,37.6h-6.154 M68.461,22.216h-6.154
		 M50,12.985v49.229 M46.923,4.001C36.462,5.477,28.462,14.464,28.462,25.292v24.614c0,10.862,8,19.816,18.461,21.292 M53.077,4.001
		c10.462,1.475,18.46,10.432,18.46,21.291v24.614c0,10.862-7.998,19.816-18.46,21.292 M83.845,50.162
		c0,18.593-15.186,33.719-33.845,33.719c-18.661,0-33.845-15.24-33.845-33.974"/>
</g>
</svg>
