<?xml version="1.0" encoding="utf-8"?>
<!-- Generator: Adobe Illustrator 22.0.1, SVG Export Plug-In . SVG Version: 6.00 Build 0)  -->
<svg version="1.1" id="Calque_1" xmlns="http://www.w3.org/2000/svg" xmlns:xlink="http://www.w3.org/1999/xlink" x="0px" y="0px"
	 viewBox="0 0 100 100" style="enable-background:new 0 0 100 100;" xml:space="preserve">
<style type="text/css">
	.st0{fill:none;stroke:#6ABFAD;stroke-width:1.8626;stroke-miterlimit:10;}
</style>
<path class="st0" d="M81.1,57.9l16.4-11.1l-5.7-8.5c-6,2.1-12.8,0.1-16.5-5.4s-3.1-12.6,1.1-17.4l-5.7-8.5L54.2,18.2l5.4,8l-4.8,3.2
	l-5.4-8L2.5,53.2l5.7,8.5c6-2.1,12.8-0.1,16.5,5.4s3.1,12.6-1.1,17.4l5.7,8.5l46.9-31.8L70.8,53l4.8-3.2L81.1,57.9z M61.9,39.8
	l-5-7.4l4.8-3.2l5,7.4L61.9,39.8z M68.9,50.2l-5-7.4l4.8-3.2l5,7.4L68.9,50.2z"/>
</svg>
